<svg width="24" height="24" viewBox="0 0 24 24" fill="none" xmlns="http://www.w3.org/2000/svg">
<path d="M12 4.36364C11.6909 4.36364 11.432 4.25891 11.2233 4.04945C11.0138 3.84073 10.9091 3.58182 10.9091 3.27273V1.09091C10.9091 0.781818 11.0138 0.522545 11.2233 0.313091C11.432 0.104364 11.6909 0 12 0C12.3091 0 12.5684 0.104364 12.7778 0.313091C12.9865 0.522545 13.0909 0.781818 13.0909 1.09091V3.27273C13.0909 3.58182 12.9865 3.84073 12.7778 4.04945C12.5684 4.25891 12.3091 4.36364 12 4.36364ZM17.4 6.6C17.2 6.4 17.1 6.14982 17.1 5.84945C17.1 5.54982 17.2 5.29091 17.4 5.07273L18.9273 3.51818C19.1455 3.3 19.4044 3.19091 19.704 3.19091C20.0044 3.19091 20.2636 3.3 20.4818 3.51818C20.6818 3.71818 20.7818 3.97273 20.7818 4.28182C20.7818 4.59091 20.6818 4.84545 20.4818 5.04545L18.9273 6.6C18.7273 6.8 18.4727 6.9 18.1636 6.9C17.8545 6.9 17.6 6.8 17.4 6.6ZM20.7273 13.0909C20.4182 13.0909 20.1593 12.9862 19.9505 12.7767C19.7411 12.568 19.6364 12.3091 19.6364 12C19.6364 11.6909 19.7411 11.4316 19.9505 11.2222C20.1593 11.0135 20.4182 10.9091 20.7273 10.9091H22.9091C23.2182 10.9091 23.4771 11.0135 23.6858 11.2222C23.8953 11.4316 24 11.6909 24 12C24 12.3091 23.8953 12.568 23.6858 12.7767C23.4771 12.9862 23.2182 13.0909 22.9091 13.0909H20.7273ZM12 24C11.6909 24 11.432 23.8953 11.2233 23.6858C11.0138 23.4771 10.9091 23.2182 10.9091 22.9091V20.7273C10.9091 20.4182 11.0138 20.1593 11.2233 19.9505C11.432 19.7411 11.6909 19.6364 12 19.6364C12.3091 19.6364 12.5684 19.7411 12.7778 19.9505C12.9865 20.1593 13.0909 20.4182 13.0909 20.7273V22.9091C13.0909 23.2182 12.9865 23.4771 12.7778 23.6858C12.5684 23.8953 12.3091 24 12 24ZM5.07273 6.6L3.51818 5.07273C3.3 4.85455 3.19091 4.59091 3.19091 4.28182C3.19091 3.97273 3.3 3.71818 3.51818 3.51818C3.71818 3.31818 3.97273 3.21818 4.28182 3.21818C4.59091 3.21818 4.84545 3.31818 5.04545 3.51818L6.6 5.07273C6.8 5.27273 6.9 5.52727 6.9 5.83636C6.9 6.14545 6.8 6.4 6.6 6.6C6.38182 6.8 6.12727 6.9 5.83636 6.9C5.54545 6.9 5.29091 6.8 5.07273 6.6ZM18.9273 20.4818L17.4 18.9273C17.2 18.7091 17.1 18.4502 17.1 18.1505C17.1 17.8502 17.2 17.6 17.4 17.4C17.6 17.2 17.8502 17.1 18.1505 17.1C18.4502 17.1 18.7091 17.2 18.9273 17.4L20.4818 18.9273C20.7 19.1273 20.8044 19.3818 20.7949 19.6909C20.7862 20 20.6818 20.2636 20.4818 20.4818C20.2636 20.7 20 20.8091 19.6909 20.8091C19.3818 20.8091 19.1273 20.7 18.9273 20.4818ZM1.09091 13.0909C0.781818 13.0909 0.522909 12.9862 0.314182 12.7767C0.104727 12.568 0 12.3091 0 12C0 11.6909 0.104727 11.4316 0.314182 11.2222C0.522909 11.0135 0.781818 10.9091 1.09091 10.9091H3.27273C3.58182 10.9091 3.84109 11.0135 4.05055 11.2222C4.25927 11.4316 4.36364 11.6909 4.36364 12C4.36364 12.3091 4.25927 12.568 4.05055 12.7767C3.84109 12.9862 3.58182 13.0909 3.27273 13.0909H1.09091ZM3.51818 20.4818C3.31818 20.2818 3.21818 20.0273 3.21818 19.7182C3.21818 19.4091 3.31818 19.1545 3.51818 18.9545L5.07273 17.4C5.27273 17.2 5.52291 17.1 5.82327 17.1C6.12291 17.1 6.38182 17.2 6.6 17.4C6.81818 17.6182 6.92727 17.8775 6.92727 18.1778C6.92727 18.4775 6.81818 18.7364 6.6 18.9545L5.07273 20.4818C4.85455 20.7 4.59091 20.8091 4.28182 20.8091C3.97273 20.8091 3.71818 20.7 3.51818 20.4818ZM12 18.5455C10.1818 18.5455 8.63636 17.9091 7.36364 16.6364C6.09091 15.3636 5.45455 13.8182 5.45455 12C5.45455 10.1818 6.09091 8.63636 7.36364 7.36364C8.63636 6.09091 10.1818 5.45455 12 5.45455C13.8182 5.45455 15.3636 6.09091 16.6364 7.36364C17.9091 8.63636 18.5455 10.1818 18.5455 12C18.5455 13.8182 17.9091 15.3636 16.6364 16.6364C15.3636 17.9091 13.8182 18.5455 12 18.5455ZM12 16.3636C13.2 16.3636 14.2273 15.9364 15.0818 15.0818C15.9364 14.2273 16.3636 13.2 16.3636 12C16.3636 10.8 15.9364 9.77273 15.0818 8.91818C14.2273 8.06364 13.2 7.63636 12 7.63636C10.8 7.63636 9.77273 8.06364 8.91818 8.91818C8.06364 9.77273 7.63636 10.8 7.63636 12C7.63636 13.2 8.06364 14.2273 8.91818 15.0818C9.77273 15.9364 10.8 16.3636 12 16.3636Z" fill="#222222"/>
</svg>
